<svg width="40" height="40" viewBox="0 0 60 60" fill="none" xmlns="http://www.w3.org/2000/svg">
<path fill-rule="evenodd" clip-rule="evenodd" d="M35.4326 56.784C20.6095 56.784 8.59144 44.7933 8.59144 30.0009C8.59144 15.2067 20.6095 3.21601 35.4326 3.21601C40.7183 3.21601 45.6432 4.7465 49.7983 7.37942C44.5177 2.78795 37.618 0 30.064 0C13.4594 0 0 13.4308 0 30.0009C0 46.5692 13.4594 60 30.064 60C37.6214 60 44.5195 57.2129 49.8 52.6189C45.645 55.2509 40.72 56.784 35.4326 56.784Z" fill="#141517"/>
<path fill-rule="evenodd" clip-rule="evenodd" d="M35.9609 5.3999C27.5786 5.3999 20.2028 9.68715 15.9 16.1806C19.8198 11.5495 25.672 8.5999 32.2198 8.5999C44.0221 8.5999 53.5896 18.1519 53.5896 29.9341C53.5896 41.7146 44.0221 51.2666 32.2198 51.2666C27.8706 51.2666 23.8289 49.9615 20.4536 47.7322C24.6396 51.2649 30.0504 53.3999 35.9609 53.3999C49.2387 53.3999 60 42.6544 60 29.3999C60 16.1455 49.2387 5.3999 35.9609 5.3999Z" fill="#035A91"/>
<path d="M29.5884 23.3766L20.9046 35.4756H29.7V37.4999H18.3V35.6331L26.9387 23.6241H18.3V21.5999H29.5884V23.3766Z" fill="#141517"/>
<path d="M39.2592 21.5996C43.318 21.5996 45.0074 26.5249 41.9426 28.8414C43.7459 29.6058 44.4 31.2702 44.4 32.7543C44.4 35.1155 42.8434 37.4996 39.8235 37.4996H32.7V21.5996H39.2592ZM34.9537 28.0317H39.2143C41.6941 28.0317 41.8977 23.7586 39.2592 23.7586H34.9537V28.0317ZM34.9537 35.2954H39.8235C41.3559 35.2954 42.1221 34.0137 42.1221 32.7767C42.1221 31.5401 41.3559 30.2807 39.8235 30.2807H34.9537V35.2954Z" fill="#141517"/>
</svg>
